<svg width="82" height="46" xmlns="http://www.w3.org/2000/svg"><g id="Designs" stroke="none" stroke-width="1" fill="none" fill-rule="evenodd"><g id="player-vs-player"><circle id="Oval-Copy-17" fill="#000" cx="59" cy="23" r="23"/><circle id="Oval-Copy-11" fill="#FFCE67" cx="59" cy="23" r="20"/><g id="Group-8" transform="translate(52.333 14.667)" stroke="#000" stroke-width="3"><path d="M5 22.292c5.523 0 10-4.477 10-10s-4.477-10-10-10" id="Oval-Copy-11" transform="rotate(90 10 12.292)"/><g id="Group-7" transform="translate(8.125)"><path id="Path" d="M.417 0v4.987"/><path id="Path-Copy" d="M8.75 0v4.987"/></g></g><circle id="Oval-Copy-18" fill="#000" cx="23" cy="23" r="23"/><g id="Group-2" transform="translate(3 3)"><circle id="Oval-Copy-11" fill="#FFCE67" cx="20" cy="20" r="20"/><g id="Group-8" transform="translate(13.333 11.667)" stroke="#000" stroke-width="3"><path d="M5 22.292c5.523 0 10-4.477 10-10s-4.477-10-10-10" id="Oval-Copy-11" transform="rotate(90 10 12.292)"/><g id="Group-7" transform="translate(8.125)"><path id="Path" d="M.417 0v4.987"/><path id="Path-Copy" d="M8.75 0v4.987"/></g></g></g></g></g></svg>